<svg version="1" xmlns="http://www.w3.org/2000/svg" width="1333.333" height="1333.333" viewBox="0 0 1000.000000 1000.000000"><path d="M462.5 1.1c-94.8 6.5-184.3 39.6-261 96.4-36.8 27.2-74.4 64.8-102 102C9 321.1-21.6 476 15.6 624.3 33.9 697 68.5 764.5 118.1 824c13.3 16 43.9 46.6 59.9 59.9 62.3 51.9 130.7 85.9 209 104 58.6 13.6 127.5 15.8 188 6 107.9-17.3 204.3-68.6 281-149.4C922.8 774.2 968.8 682 984.9 586c5.8-34 6.5-44.1 6.6-85.5 0-39.7-.8-50.1-5.6-80.5C960.5 260.3 859 122.4 714.5 51c-77.9-38.5-165.6-55.8-252-49.9zM529.6 22c40.8 3.2 74.8 9.8 112.4 22.1C771 86.3 878 185.3 931.3 312c9.1 21.7 8.9 20.1 2.5 18.4-2.9-.8-7.8-1.8-10.8-2.4-35.5-6.1-55.4-8.3-91.5-10-26.6-1.2-45.1-.1-76 4.4-52 7.6-63.6 8.7-101.5 9.3-46.8.8-67.8-2-100.5-13.1-37.5-12.8-71.2-14.3-119.3-5.5l-11.2 2.1-17.8-4c-25.2-5.8-32.2-6.5-57.2-5.9-23.8.6-38.6 2.1-68.8 7.3-11.2 1.9-20.5 3.4-20.7 3.4-.1 0 2.4-2.7 5.6-6 3.2-3.3 6-6 6.3-6 .2 0 .6.9.9 2 .8 3.1 5.4 2.5 12-1.5 5.5-3.3 5.8-3.4 5.5-1.2-.4 3.3 1.5 3.4 3.1.1 2-4.3 5.1-7.3 10.1-10 4.9-2.5 3-3.3-2.5-1-3.1 1.3-3.5 1.3-3.5 0 0-2.7-2.6-1.4-3.8 2.1-1 2.5-2.8 4.3-7 6.9-3.1 1.9-7 3.8-8.5 4.2-2.5.6-2.8.4-2.5-1.2.2-1 1.4-2.4 2.6-3 2.7-1.4 9.2-7.4 9.2-8.6 0-.4-1.2-.8-2.6-.8-1.9 0-4.2 1.5-7.6 5-2.7 2.7-5.2 5.1-5.6 5.1-.4.1-2.9.3-5.7.5l-5 .3 4-3.4c3.1-2.7 3.6-3.5 2.1-3.5-1 0-3.9 2.1-6.5 4.6-4.6 4.6-10.9 9.4-12.3 9.4-.5 0-.1-1.7.8-3.8.9-2 1.8-4.3 2.1-5 1-2.3-2.4-1.2-3.4 1.1-1.2 2.6-17.9 14.4-18.9 13.5-1.1-1.1.7-4.7 2.6-5.3 2.9-.9 9.2-8.7 8-9.9-2.8-2.8-13 8.2-13 14 0 2.7.4 3.4 1.9 3.4 1.8 0 13.5-7.2 14.6-9.1 1.2-1.9 2.5-.9 1.5 1.2-1.5 2.8-.6 5.1 1.7 4.2 1-.4 3.7-2.3 6-4.2 2.4-1.9 6.4-4 9-4.7l4.8-1.2-3.5 2.7c-5.2 3.9-8.1 7.3-7.6 8.8.3.7-.4 1.5-1.7 1.8-17.1 3.9-25.6 6-32.3 8-4.5 1.4-8.5 2.5-8.8 2.5-1.1 0-.6-3.4 1.3-9 1.7-5.1 2.4-5.9 10-10.9 4.4-3 7.9-5.7 7.6-5.9-.2-.2-3.4 1.2-7 3.2-3.8 2.1-6.5 3.1-6.5 2.3 0-1.3 3.7-11.7 9.4-26.6 2-5.2 3.4-9.6 3.2-9.9-1.2-1.1-3.6 1-4.4 4-.6 1.8-3.5 10.5-6.6 19.3l-5.5 16-8.2 5.3c-4.5 2.9-8.3 5.1-8.5 4.9-.5-.5 1.5-6.9 5.6-17.7 4.7-12.5 4.6-12.2 2-11.8-1.9.3-2.9 2.4-7.2 15.8-2.7 8.5-5.1 16-5.3 16.5-.1.6-3.6 3.5-7.6 6.5-4.1 2.9-6.8 4.6-6 3.7 1.8-2.2.6-2.1-3.3.2-1.7 1-5.1 2.1-7.6 2.5l-4.5.6 4.5-4c2.9-2.6 3.9-4 2.9-4s-3.9 2.4-6.5 5.3c-5.4 5.9-12.2 11.3-13 10.4-.3-.3.2-1.9 1-3.6 1.9-3.5 2.1-7.6.5-6.5-1.3.8-5.9 10.8-5.9 12.9 0 2.6 3.6 1.6 8.1-2.3 3.4-3 12.9-8 12.9-6.8 0 .1-2.5 2.8-5.6 6l-5.7 5.8-13.1 2.3c-14.7 2.6-42.5 5.9-45.1 5.3-1.2-.2-.4-1.2 2.9-3.5l4.6-3.3v2.6c0 2.5.4 2.3 6.9-3.5 3.8-3.4 7.2-6.1 7.5-6.1.4 0 .4 1.6 0 3.5-.9 5 1.5 5.6 7.1 1.6 5.2-3.8 5.7-3.8 4.9-.6-1 3.9 2.2 3.2 3.5-.8 1.3-3.7 4.8-7.4 10.1-10.6 2.6-1.6 3-2.1 1.5-2.1-1.1.1-3.1.7-4.5 1.5-3.2 1.8-4.1 1.8-3.4 0 .4-.8.2-1.5-.4-1.5-1.4 0-2.9 2.1-3.7 5.2-.5 1.9-2.3 3.6-6.2 5.8-3 1.7-5.8 2.9-6.1 2.6-.3-.4.2-2.2 1.1-4.2 1-1.9 1.5-3.9 1.2-4.4-.9-1.5-5.7.9-9.9 4.8-3.5 3.4-3.8 3.5-3.1 1.2.4-1.4 2.7-7 5.1-12.5 4.5-10.2 5.1-12.5 3.4-12.5-1 0-7.2 11.8-11 21.2-2.2 5.4-2.7 5.9-11.8 11.2-9.3 5.5-9.6 5.6-19.1 6.1-5.3.3-10.8.8-12.3 1-2.4.4-2.8.1-2.8-1.8 0-3.1 6.2-14.9 11.4-21.6C81 327.3 90.1 320 94.7 320c2.1 0 2.3.3 1.7 2.2-1.9 5.9.3 9.2 2.6 3.9 2.5-6-1.3-10.7-7.3-9-4.4 1.2-13.2 8.3-19.3 15.7-5.4 6.5-12.7 19.9-13.8 25.3-.5 2.4-1 2.6-7.8 3.2-4 .3-7.4.4-7.6.2-.2-.2 1.5-6.1 3.8-13.2 33-100.1 99.9-188.2 187.4-247.2C301.1 56.2 375.2 29.9 456 22.6c17.7-1.7 56.1-2 73.6-.6zM283 294.3c0 .2-1.4 1.6-3.1 3.3-2.6 2.4-3 2.5-2 .7 1.1-2.2 5.1-5.3 5.1-4zm-50.4 12.5c-1.6 1.5-2.5 2-2.1 1.2 1.3-2.5 3.8-5 4.4-4.5.3.3-.8 1.8-2.3 3.3zM261 311c-4.5 3.9-6.5 3.8-2.2 0 1.8-1.7 3.8-3 4.5-3 .6.1-.4 1.4-2.3 3zm110.5 4.4c11.4 1.6 24.5 4.4 25.7 5.5 1.2 1-60.1 19.6-74.7 22.6-18 3.7-40.2 3.7-58.8-.1-14.7-2.9-42-11.2-41.2-12.4.9-1.5 25.2-9 37.4-11.6 10.1-2.1 28.7-4.7 41.1-5.8 10.4-.9 60 .4 70.5 1.8zm-163 8.1c-.8 3.2-1.6 5.9-1.7 6-1.4.9-16.2 7.5-16.4 7.3-.1-.2.5-2.4 1.4-5 1.5-4.2 2.7-5.5 9.7-10.3 4.4-3 8.1-5.1 8.3-4.7.1.5-.4 3.5-1.3 6.7zm291.3-4.5c18.7 1.3 30.9 3.8 52.2 11 9.6 3.2 22 6.8 27.5 8 5.4 1.1 10.1 2.3 10.4 2.6.7.6-5.9.5-21.9-.6-16.8-1.1-26.1-2.2-49.5-5.6-15.8-2.3-66.5-12.1-67.4-13-1.1-1 8.6-2 31.9-3.2 1.4-.1 8.9.3 16.8.8zm362.2 7c41.2 1.9 78.2 6.4 80.7 9.7 3 3.9 15.9 48.1 14.5 49.5-2.1 2.1-47.5 17.4-73.5 24.8l-14.7 4.1-17.3-1.1c-46.8-3-95.4-8.7-149.2-17.5-35.3-5.7-39.3-6-76.5-6-28.3 0-36.6.4-46 1.9-15.8 2.4-26.4 5-35.1 8.4-11.6 4.6-26.8 9.4-28.1 9-.7-.3 3.2-5.1 8.7-10.9 10.3-10.7 10.4-11.8.3-2-6.1 5.8-6.3 5.8-4.9-.1.5-2 .6-4 .3-4.3-.3-.3-2.5 1.6-5 4.2-3.9 4.4-4.4 4.3-2.6-.2.4-.9 0-1.5-.9-1.5s-2.1 1.6-2.8 3.5c-.8 2.1-3 4.7-5.8 6.7-3.6 2.5-4.3 2.8-3.7 1.2.4-1 1-3.1 1.3-4.7.8-4.1-1.4-3.4-6.5 1.9-5 5.3-5 5 .4-8.5 3.6-8.9 4.1-11.5 2.3-10.9-1.1.4-7.2 14.1-10.5 23.3-1.4 4.1-1.8 7.5-.9 7.5.3 0 3-2.6 6.1-5.8 5.3-5.5 5.4-5.6 5.2-2.7-.4 4.2 2.6 4.5 6.6.6 2.2-2.2 3.8-3 5-2.5 1.1.4 2.7-.3 4.7-2.2 3.3-3.2 3.5-3 1.5 1.7-2.2 5.3-6.4 8.6-13.1 10.3-8.5 2.1-27.7 5.7-28.2 5.2-.2-.2.1-2.4.7-4.9.8-2.9 2.5-5.8 5.1-8.3 2.1-2.1 3.9-3.5 3.9-3.1 0 1.6-2.9 6.3-4.9 8.1-2.7 2.4-2.7 4 0 2.6 2.5-1.4 7.9-9.7 7.9-12.2 0-2.6-3.2-2.2-6 .7-1.6 1.7-3 2.3-4.6 1.9-1.9-.5-2.3-.1-2.6 2.2-.3 2.6-5.1 7.4-6.3 6.2-.3-.3-.1-1.8.5-3.3 1.6-4.2.4-4.3-3.8-.4-2 1.9-4.6 4.2-5.6 5-1.8 1.3-1.9 1.3-.7-.8.6-1.2 3.2-3.8 5.7-5.7 2.6-2 4-3.7 3.4-4.1-1.5-.9-7.6 3.9-10.6 8.5-4 6-1.7 7.3 4.9 2.8 1.5-1.1 2.7-1.5 2.7-1 0 2 2.9 2 5.3.1 1.4-1 2.7-1.9 3-1.9 1 0-.5 3.7-2.6 6.3-2 2.3-3.3 2.7-11.9 3.7-5.4.5-12.9 1-16.8 1h-7.1l1.6-2.9c1.3-2.7 7.3-8.1 8.8-8.1.3 0 .3 1.6 0 3.5-.7 4.3 1.1 4.7 2.5.6 1.2-3.4 5.8-7.9 9-8.7 1.2-.4 2.2-1 2.2-1.4 0-.8-4.9.2-7 1.5-.5.3-1-.1-1-.9 0-2.2-1.7-2-2.9.3-.9 1.6-7.3 6.1-8.7 6.1-.2 0-.2-1.1.2-2.5.8-3.2-1.5-3.4-4.2-.4-2.9 3.2-7.4 6.2-7.4 4.9 0-.6 2.1-3.3 4.6-6 4.9-5.2 5.1-6.3.6-3.1-2.4 1.6-3.6 1.7-10.6.9-8.8-.9-10-.4-12.2 4.9-3.4 8.1 5.1 9.6 9.7 1.8 1.9-3.2 6.2-5.6 7.5-4.2.3.3-.2 1.7-1.1 3.1-3.4 5.1.8 7.5 5.9 3.5 3.9-3.1 3.1-.5-1.1 3.5-4.5 4.3-7 4.5-26.1 2.1-15.4-1.9-26-4.4-38.7-9.1-5.5-2-14.4-4.9-19.9-6.5-5.4-1.5-10.1-3-10.3-3.3-.3-.3 0-2 .6-3.8 1-3.1 1.5-3.4 5.6-3.6 5.7-.2 19.8-3.7 24.4-6 4.6-2.3 5.8-4.3 4.6-7.9-1.5-4.4-8.7-7.4-19-8.1l-8.5-.5-2.9 6.4c-1.6 3.5-4.1 10-5.7 14.4-1.5 4.4-2.8 8.1-3 8.3-.1.2-5.1-.5-11.1-1.4-15.5-2.6-44.5-2.3-60.8.5-27 4.7-46.6 11.5-69.8 24.3-23.4 12.9-41.2 19.3-62 22.4-20 3-43.4.6-61.2-6.1-16.4-6.1-36.4-18.9-36.5-23.3 0-3.3 5.6-29.1 9.2-42.1l3.1-11.3 3.6.6c2 .3 5.5.6 7.8.6 3.3 0 4.3.4 4.8 2 1.8 5.8 8.4 6.6 17.3 2.1 5.6-2.8 6.1-2.8 27.2-3.4 43.1-1.1 72.9-7.7 92.1-20.3 4.6-3 11.9-7.3 16.2-9.5l7.8-4 14.2 5.5c29.4 11.3 42.5 14.1 67.2 14 20.7 0 29.1-1.5 61.5-10.5 26.3-7.2 52.8-13.9 55.4-13.9 1.2 0 9.9 1.8 19.2 4 41.4 9.7 72.1 13.9 109.4 14.7 22.5.5 28.5.3 40-1.3 9.6-1.3 17-1.7 25.5-1.4 21.1.9 57.5.4 72-.9 17.5-1.5 43.8-5.1 71-9.7 29.1-4.9 33.3-5.5 47.5-6.3 18.9-1.2 36.2-1.2 60-.1zm-674 6.4c0 .7-.3 2.7-.6 4.4-.6 2.8-1.4 3.4-8.3 6.1-9.4 3.6-15.1 5.2-15.1 4.2 0-1.6 4.8-5.1 6.2-4.6 1 .4 4.3-1.6 8.9-5.4 7.8-6.4 8.9-6.9 8.9-4.7zm-15.1 5.5c-1.3 1.1-2.8 2-3.4 2-.5 0 .3-1.1 2-2.4 1.6-1.3 3.1-2.2 3.4-2 .2.3-.7 1.3-2 2.4zm-9.9 7.6c-1.8 1.9-3.6 3.2-3.9 3-.2-.3 1.1-2.1 2.9-4 1.8-1.9 3.6-3.2 3.9-3 .2.3-1.1 2.1-2.9 4zm-92.9 22.1c-3.8 1.7-7.2 1.5-7.9-.4-.3-.9 1.2-1.2 5.5-1.1l5.8.1-3.4 1.4zm294.3 10.3c2.8 1.2 4.6 2.6 4.4 3.3-.9 2.7-7.1 5.6-16 7.8-5.1 1.2-10.4 2.6-11.7 3.1-1.3.5-2.5.8-2.8.6-.6-.7 6.6-16 8-17 2-1.4 13-.1 18.1 2.2zm597.3 22.7c.7 3.2 1.2 6.2 1.3 6.5.1 1.7-24 5.6-40 6.4-6.3.3-14 .8-17 1.1-3.2.3-5.1.1-4.5-.4.6-.5 9.6-3.6 20-7 10.5-3.4 23.1-7.7 28-9.6 5-1.9 9.4-3.3 10-3.2.5.1 1.5 2.9 2.2 6.2zM653 398.1c17.6 1.1 22.9 1.8 58 7.3 40.4 6.3 82.1 11.5 109.5 13.6 8.3.7 15.9 1.5 16.9 1.9 2.1.8-20.1 5.5-42.4 9-44.2 7-86.6 7.7-119.1 2.2-11.9-2.1-20.6-4.5-37.7-10.5-20.8-7.3-45.7-10.8-77.2-10.8-11.2 0-19.7-.4-19-.8.8-.4 5.6-2.1 10.5-3.8 22.4-7.6 60.8-10.7 100.5-8.1zM304.3 408c-.7 2.8 2.1 6.6 5.3 7.3 3.8.7 8.7-.9 11.4-3.8 3-3.2 4.1-3.1 17.7.4 12.8 3.3 13.3 3.5 13.3 6.2 0 2.3 9.2 12.5 12 13.4 2.3.7 8.7-1.9 11.7-4.7l2.2-2 11.3 2.1c6.2 1.1 15.2 2.4 20.1 2.7 9.2.7 9.7 1.1 7.2 5.4-1.9 3.3-1.9 6.9 0 7.6 2.1.9 7.8-3 10.9-7.5l2.7-3.8 11.7-.7c6.4-.4 14.3-.9 17.6-1.3l5.9-.6-.7 3.7c-.6 3.3-.5 3.7 1.1 3.4 1-.2 2.6-2 3.6-4.1.9-2 2.3-3.7 3-3.7.6 0 7-1.1 14.2-2.5 7.1-1.3 13.1-2.2 13.3-2 .2.1-.6 2.1-1.7 4.4-5.8 11.2 2 9.2 9.5-2.4 2.4-3.8 4.1-5.4 6.8-6.2 2.3-.7 3.8-.8 4.2-.1.3.5 1.6 1.3 2.9 1.8l2.4.9.3 25.3.3 25.3 3.1 6.5c3.9 8.2 9 14.6 23.5 29.8 10.5 11.1 13.9 13.8 13.9 11.3 0-.5-5.9-7.1-13-14.6-14.5-15.2-20.2-22.9-23.3-31.4-1.8-5-2-8-2.1-29.3l-.1-23.7 5.5-.8c3-.4 17-.8 31-.7 21 0 28 .4 39.6 2.2 14.9 2.3 32 6.7 39.4 10.1l4.5 2.1-12.5-.5c-10.4-.4-23.2-2.3-33.5-5.1-4.5-1.2 1.7 1.8 10.3 4.9 8.6 3.2 8.9 3.2 27.7 3.3 14.2 0 20.7.5 25.5 1.7 12 3 26.4 4.8 44.4 5.4 15.7.5 17.7.8 16 2-1 .8-14.7 9.1-30.4 18.6-29.9 18-51.4 31.9-56.7 36.9-1.9 1.9-3.6 2.7-4.4 2.3-.7-.5-1-.4-.5.3.4.6-2.6 3.6-7.1 7-4.3 3.3-9.6 7.7-11.8 9.8-2.2 2.1-4.4 3.8-4.9 3.9-.5 0-1 1-1.1 2.3-.2 2 .4 1.8 4.2-2.2 2.4-2.5 7.6-6.8 11.6-9.5 3.9-2.6 12.1-8.3 18.1-12.5 14.9-10.5 22.4-14.8 56.3-32.9 16-8.6 32.7-17.8 37-20.3l7.8-4.7 14-1.3c20.5-1.9 63-8.4 73.5-11.4 3.2-.8 3.3-.8 1.6.5-1.1.8-2.5 1.5-3.2 1.5-2.8 0-33 12.8-47.4 20.1-26.4 13.3-45 26.8-57.5 42-10.5 12.7-25.3 23.9-43.3 32.9-20.1 10-38.9 14.8-62.1 15.9-12.2.5-14.6.9-15.5 2.3-.8 1.3-.8 2.3 0 3.5 3.8 6.2 40.5 2.5 64.2-6.3l7.4-2.7 11.1 3.6c14 4.5 33.5 9.1 68.7 16.1 41.2 8.3 80.8 14.8 85.3 14 5.6-.9 8.5-4 10.3-10.9 2.2-8.9 4.5-10.7 14.2-11.3 13.8-.8 19.7 2.9 19.7 12.2-.2 12.1-13.4 25.1-38.1 37.4-14 7-19.9 8.8-34.4 10.3-18 2-61.9 1.7-78.5-.5-61.9-8.1-117.1-31.4-157.1-66.4-4.7-4-9.2-7.2-10.1-7-.9.2-2 1.3-2.4 2.6-.5 1.3-.5 2.1-.1 1.8.5-.3 3.1 1.7 5.7 4.4l4.9 5h-3.9c-7.3 0-34.6-7.4-56-15.2-6-2.2-11.1-4.2-11.3-4.3-.6-.5 3.1-18.6 3.7-18.3.3.2 4.7 2.4 9.6 4.9 9.9 5.1 25.3 11.4 30 12.4 1.7.3.3-.5-3-1.8-9.7-3.9-20.4-9.2-29-14.4-8.9-5.4-13.4-5.9-15.9-2-2.2 3.4-4 21.8-3.2 34.3.6 12 4.2 29.7 7.6 38.4 4.1 10.5 11 22.5 18.1 32 4 5.2 7.9 9.9 8.6 10.5.9.7-1.7 1-8.4 1-5.4 0-17.7.4-27.3.9l-17.5.9 4.8-5.3c3.1-3.5 4.7-6.1 4.5-7.4-.2-1.5 1-3.1 4.2-5.4 5.4-4 8.5-7.5 10.9-12.2 3.9-7.5 3.9-7.5-4.1-10.8-12.2-5-18.6-6.4-28.3-6.4-7.5 0-10.5.5-18 3.2-8.5 3-10.1 3.2-30 4-46.7 2-62.8 4.8-85.1 14.9-6.1 2.7-15.4 6.2-20.5 7.7-12.3 3.4-21.1 7.7-24.5 11.7-1.5 1.7-3.2 3-3.8 2.9-.6-.2-8.7-2.3-18.1-4.7-20.3-5.1-33.4-9.8-47.4-17.1-5.8-3-11.5-5.4-12.7-5.4-1.3 0-2.6-.5-2.9-1-1.1-1.7-9.7-5.7-16.5-7.6-3.6-.9-7.4-2.3-8.6-3.1-1.1-.7-8.8-2.2-17-3.4-23.7-3.3-32.3-5.4-49.6-12.2-9-3.5-22.6-8.3-30.3-10.7-20.1-6-35.6-13.6-51.6-25.2l-6.6-4.8-.6-11.3c-1-16.4-.8-42.6.3-57.3 1.3-17.4 3.1-33.6 3.9-35.1.4-.8 2.6.2 6.9 3.2 13 9 29.5 16.1 46.7 20.1 11.3 2.7 43.2 2.7 55.5.1 14.3-3.1 32.9-9.8 46-16.6 36.7-18.9 44.9-22.2 50.1-20.1 3.5 1.5 13 .5 17.4-1.7 1.6-.9 4.4-2.8 6.2-4.4 2.4-2 4.7-2.9 9-3.4 3.2-.4 6.3-.8 6.8-1 .6-.2 8-.4 16.7-.4 15.1-.1 15.6 0 15.1 1.9zm113.1-.2c.8 1.3-3.2 7.2-4.9 7.2-1.2 0-1.3-.5-.4-2.7 1.7-4.6 4-6.5 5.3-4.5zm548.3 17.7c4.2 28.9 4.8 37.9 4.8 74.5 0 28.9-.4 39.7-1.8 52-5.7 48.6-16.6 91.3-34.2 133.4-63.5 152.4-199.7 261-360.6 287.5-28 4.6-39.9 5.5-75.9 5.5-40 .1-58.5-1.5-91.5-8C217 933.2 67.1 781.1 31.6 590c-3-16.3-4.9-29-4.4-29.5.2-.2 6.7 2.2 14.3 5.4 15.1 6.3 44.5 16.6 64.5 22.6 6.9 2.1 13 4.2 13.5 4.7.6.5-11 .8-30 .7-17.1-.1-33 .1-35.5.5l-4.5.7.2 15.2c.2 8.4.5 20.3.9 26.4l.6 11.3h9.2c11.2 0 27-2.7 43.1-7.5 6.6-1.9 12-3.5 12.1-3.5 0 0 .4 3.8.7 8.4.3 4.6 1.3 11.2 2.2 14.7 4 15.6 12.6 35.3 17 38.7 5.3 4.2 12.9 2.5 31.5-6.8 20.2-10 33.8-20.9 40.2-32 1.5-2.5 4.5-9.2 6.8-15 2.3-5.8 4.9-11.9 5.8-13.5 1-1.7 1.7-3.1 1.8-3.3.1-.1 5.5 1.3 12.1 3.2 14.2 4.1 33.3 8.7 45.8 11.1l9 1.7 2.4 5.4c7 15.9 20.6 30.7 34.3 37.3 10.1 4.9 16.4 6.5 22.6 5.9 9.5-.9 12.7-3.4 35.5-28.1 8.7-9.4 10.1-10.5 12-9.7 2.8 1.1 40.9 3 50.2 2.5 3.9-.3 13.6-.6 21.8-.9l14.7-.4v2.3c0 5.9-8.1 24-19.5 43.5-5.8 9.9-8.5 17.1-8.5 22.6 0 3 .6 3.5 9.3 8.3 11.3 6.4 17.6 8.5 22.4 7.8 7.3-1.2 11.4-7.9 13.3-21.4 1.1-8.5 1.4-9.2 11.9-26.8 4.7-8 7.2-15.1 10.2-28.5 1.1-5.2 2.1-9.5 2.2-9.6.1-.1 6.7-.5 14.7-.8 98.6-4.5 171.2-10.1 221.4-17.2 21.7-3.1 45.5-8.3 59.6-13.1 37-12.6 62.4-29 70.4-45.6 5.4-11 3.1-23.7-5.3-29.2-8.4-5.6-27.5-5.9-34.9-.5-4.1 2.9-8.2 10.2-8.2 14.5 0 3.9-3 4.9-10.9 3.5-3.6-.6-7.9-1.3-9.6-1.6-54.8-8.9-134.5-25.7-134.5-28.5 0-.3 1.7-1.3 3.8-2.3 6-2.9 22.2-14 29.3-20.3 3.7-3.2 8.8-8.6 11.3-12 14.4-19.1 50-40.5 96.2-57.6 11.8-4.4 38.5-10.2 43.8-9.5 2.2.3 1.7.9-4.2 5.3-3.7 2.7-11 7.9-16.2 11.4-5.2 3.6-11.9 8.5-14.9 11-6.5 5.5-17.8 18.8-24.6 29.1-8.4 12.7-18.5 21-36.5 30-13.8 6.9-36.7 15.1-54.8 19.7-3.4.8-6.1 1.8-5.8 2 .6.7 31.1-7.2 41.6-10.8 21.5-7.2 38.6-16.1 48.7-25.3 3-2.7 8.7-9.3 12.6-14.5 9-12.3 21.3-24.4 30.2-30 16.8-10.6 32.9-21.5 38.3-26 4.9-4.1 7.4-5.3 15.6-7.7 5.4-1.5 10.4-3.3 11.1-4.1.8-.7 3.5-1.3 6.2-1.3 6.6 0 29.4-2.7 37.3-4.4 3.6-.8 7.2-1.4 8-1.3 1.1.2 1.8 2.5 2.7 8.2zM432 421c0 .5-.5 1-1.1 1-.5 0-.7-.5-.4-1 .3-.6.8-1 1.1-1 .2 0 .4.4.4 1zm75 .6c0 1.2-7.2 11.4-8.1 11.4-1.3 0-1.2-.5 1.6-5.9 2.2-4.4 3.5-5.8 5.8-6 .4-.1.7.2.7.5zm372.5 2.5c-11 1.7-27.9 3.9-28.2 3.5-1.1-1.1 17.3-4.4 24.7-4.4 7.8.1 8.1.1 3.5.9zM425 434c-2.1 3-5.8 6-7.2 6-1.4 0-.9-2.4 1.2-5.8 1.5-2.5 2.6-3.2 5.1-3.2h3l-2.1 3zm93.5 108.1c19.5 6 41.1 11.1 49 11.5 6.9.3 7 .4 17 7.7 5.5 4.1 11.9 8.7 14.3 10.2 2.7 1.8 3.9 3.1 3.1 3.5-.6.4 0 .7 1.4.7s5.2 1.6 8.4 3.6c6.8 4.1 26.8 14.2 30.1 15.2 1.2.3 2 .9 1.8 1.3-.2.4.6.8 1.7.8 1.2.1 7.8 2.3 14.7 4.9 18 6.8 42.2 12.9 61.5 15.5 5 .7 9.7 1.5 10.5 1.8 2.5.9 4.5 1.1 31.8 1.8 14.4.4 26.1.8 26 1-.7.6-38.9 6.5-53.8 8.3-39.7 4.9-101.1 9.5-173 13l-16.5.8-5.2-4.4c-2.9-2.4-6.2-5.7-7.3-7.3l-2.1-3 5.8-.1c3.2 0 8.5-.2 11.8-.4 3.3-.3 19.3-.9 35.5-1.5s54-2.2 84-3.6c30-1.5 55.7-2.6 57.2-2.5 1.5.1 3-.4 3.4-1 .5-.9-.8-1-5.2-.5-3.2.4-17.6 1.1-31.9 1.6-61.9 2.1-118.7 3.9-140.7 4.5l-23.7.6-3.8-5.6c-2.1-3.2-4.6-6.9-5.5-8.4-1-1.4-1.8-2.9-1.8-3.4 0-.4 31.2-.8 69.3-.9 38-.1 63.1-.3 55.7-.5-7.4-.1-37.1-.8-66-1.5-28.9-.6-54.6-1.2-57.2-1.2h-4.7l-3.1-7.2c-1.7-3.9-3.5-8.8-4-10.8l-.8-3.6 4.7.5c9.9 1.1 29.1 2.5 65.1 5 38.2 2.6 48.6 2.6 19.5.1-43.3-3.8-89.7-8.5-90.3-9.1-.8-.7-3.1-12.2-3.2-15.3 0-2.7.3-3.2 1.8-2.8 3.9 1.2 42.9 7.7 59.7 10.1 9.9 1.3 19.8 2.7 22 3 2.3.4 3.6.2 3-.3-.5-.4-6.6-1.6-13.5-2.6-20.9-2.8-70.3-12.5-73.1-14.2-1-.6-1.2-14.7-.3-18.2.5-1.6 1.2-2.1 2.3-1.7.8.3 7.4 2.4 14.6 4.6zm-39.7 52.8c1 .5-2.1 1.3-8.9 2.1-5.7.7-17.4 3-25.9 5.1-13.5 3.4-17.7 5-32.5 12.3-23.9 11.9-33.6 18-42.9 26.7-4.5 4.1-13.3 11.9-19.6 17.3-6.3 5.3-13.8 11.7-16.7 14.2-2.8 2.4-5.7 4.4-6.4 4.4-1.8 0-7.9-4.9-7.9-6.3.1-4 19.3-19.2 48.6-38.7 34.2-22.8 37.5-24.3 65.9-30.5 7.2-1.5 11-2.6 26.5-7.2 4.7-1.3 16.9-1 19.8.6zm2.8 4c-.5.8-7.6 2.1-23.4 4.1-15.3 2-36.2 10.6-57.7 23.5-20.3 12.3-24.6 15.9-48.8 41.8-8.1 8.6-13.6 13.7-14.8 13.7-1.1 0-3.4-.7-5.2-1.6l-3.2-1.7 3.4-2.6c8.7-6.7 28.4-23.5 37.2-31.6 10.5-9.7 18.1-14.7 40.3-26 20-10.4 37.5-15.8 61.1-18.9 5.5-.8 10.4-1.4 10.8-1.5.5 0 .6.3.3.8zm-328.1 2.7c-13.4 1.8-22 3.8-37.2 8.5-8.6 2.7-19.8 5.1-34.6 7.4-11.9 1.9-22 3.5-22.2 3.5-.8 0-.5-8 .3-8 3.7-.2 26.9-2.1 35.2-3 13.2-1.3 19.4-2.5 29.5-5.6 8-2.5 20.5-4.1 32.5-4.1 6.2-.1 6.1 0-3.5 1.3zm256.5.3c-.8.5-3.5 1.2-6 1.6-7.1 1.1-41.8 12.4-48.2 15.6-3.2 1.6-10.4 5.9-16 9.6-9 5.8-21.9 13.8-34 21.2l-3.7 2.2-2.6-5c-1.4-2.8-2.5-6-2.5-7.1 0-1.1-.5-2.9-1.2-4-1-1.6-.9-2.3.7-4.1 3-3.2 7.8-5.4 19.9-8.9 6-1.7 15.3-5.1 20.6-7.5 5.3-2.4 12.5-5.3 16.1-6.5 8.6-2.8 26.7-5.8 41.4-6.9 17.2-1.2 17.3-1.2 15.5-.2zm-304.1 1.2c18.6.1 10.1 2.1-23.4 5.4-8.8.8-17.7 1.7-19.7 1.9-3.8.4-3.8.4-3.8-3.4 0-4.9.3-5 19.4-4.4 8.2.2 20.6.4 27.5.5zm63.1 1c-11.7 2-46.1 11.5-55.9 15.4-12.8 5-45.7 13.5-52.2 13.5-1.8 0-2-.6-1.7-4.8l.3-4.7 5-.7c38.2-5.7 39.1-5.8 59.5-12.1 10.8-3.3 22.5-5.5 40-7.6 13.1-1.5 16-1 5 1zm318 .5c-4.1 4.8-17.8 10.4-35.9 14.4-18.5 4.1-24.7 6.2-37.6 12.4-17.1 8.4-30.6 18.9-43.3 34-11.8 14-17.6 18.6-23.3 18.6-2 0-1.1-1.3 5.7-8.3 4.4-4.5 11.2-11.7 15-16.1 8.1-9.3 19.2-18.2 33.8-27.1 25-15.3 42.9-22.4 63.5-25 7.3-.9 15.2-2.3 17.4-3 5.7-1.8 6.2-1.8 4.7.1zm-294.3 2.1c-.4.3-6.8 1.9-14.2 3.4-17.4 3.6-35.1 8.4-60 16.4-28.6 9.1-43.4 12.5-55 12.5-3.8 0-4.6-.3-4.3-1.7.2-1.3 2.2-2 8.3-2.9 10.4-1.5 33-7.5 47-12.5 13.3-4.7 36.9-11.5 48.5-13.9 8.2-1.8 31.1-2.8 29.7-1.3zm207.3.7c0 .2-3.3 2.2-7.2 4.4-4 2.2-17.8 11.1-30.7 19.7-23 15.3-37.4 26.5-44.1 34.1l-3.3 3.8-2.9-3.4c-5-6-8-10.8-7.4-11.8.3-.5 5.2-3.7 10.8-7 5.7-3.3 17-10.3 25.2-15.6 15.6-10.1 21.6-12.8 44.8-20.2 14.2-4.5 14.8-4.6 14.8-4zm-202.2 12.2c.5.3-17.4 3.4-28.8 4.9-6.3.9-15.7 2.5-20.8 3.6-5 1.1-9.8 1.9-10.5 1.6-.6-.2.6-.7 2.8-1.1 2.2-.4 8-1.9 12.8-3.3 4.9-1.3 15.7-3.9 24-5.7 14.1-3.1 15.4-3.2 17.7-1.8 1.4.9 2.6 1.7 2.8 1.8zm11.1 3.9c-2 2-20.3 7.6-29.4 9.1-15.8 2.5-34.6 7.9-44.9 13-4.9 2.4-9.1 4.4-9.3 4.4-.2 0-.3-3-.1-6.6l.3-6.6 6-1.9c3.3-1 7.8-2.1 10-2.4 2.2-.3 9.2-1.4 15.5-2.4 6.3-1.1 16.5-2.8 22.5-3.7 6.1-.9 12.8-2 15-2.4 4.5-.8 15.1-1.2 14.4-.5zM199 632c-.8.6-4.4 1.9-8 3-6.3 2-14.7 6.3-24.5 12.5-2.7 1.8-9.6 5.5-15.3 8.4-5.7 2.8-12.4 6.7-14.9 8.6-2.5 1.9-5 3.5-5.4 3.5-.5 0-1.7-3-2.9-6.7-1.9-6.2-1.9-6.7-.4-8.5 2.3-2.5 10.2-5.9 20.9-9.2 5-1.5 10.4-3.2 12-3.7 1.7-.6 8.4-1.9 15.1-2.9 6.6-1.1 14.5-2.8 17.5-3.8 6.2-2.2 8-2.6 5.9-1.2zm-69.3.6c-.3.3-1.2.4-1.9.1-.8-.3-.5-.6.6-.6 1.1-.1 1.7.2 1.3.5zm74.3 12.3c-2.1 5.6-5.6 12.5-7.7 15.2-6.4 8.5-17.7 16.3-37.2 25.8-12.3 6-16.4 7-19 4.7-3.6-3.3-3.3-5.5 1.2-7.7 2.3-1.2 10.5-6.3 18.2-11.3 7.7-5.1 15.4-10 17-11.1 4.8-3 21.6-16.9 26.4-21.9 2.5-2.5 4.6-4.4 4.7-4.3.2.2-1.4 4.9-3.6 10.6zm-3.6-8.5c-1.4 3.8-48.7 38.4-59.7 43.7-5.4 2.6-5.5 2.5-7.7-4.2-1-3.1-1-4.1-.1-5.3 2.4-2.8 12.5-9 19.6-11.9 3.8-1.5 12.2-6 18.6-9.8 9-5.4 21-11 29.6-13.8.1-.1 0 .5-.3 1.3zm312 26.1c-1.8 8.5-4.5 17.5-5.4 17.5-.6 0-.3-9.9.6-18.8.4-4.3 1-5.5 2.7-6.2 1.2-.4 2.5-.5 2.9-.1.4.3 0 3.7-.8 7.6zm-17-2.8c-2.1 15.7-7.1 36.8-12.3 52.1-3.2 9.5-6.1 17.5-6.4 17.8-.7.7-6.7-2.7-6.7-3.8 0-.4 1.4-3.4 3-6.7 3.5-6.9 13.9-33.7 16.5-42.6 1-3.3 1.8-9.3 1.9-13.2.1-6.8.3-7.3 2.3-7.3 1.9 0 2.1.4 1.7 3.7zm2.3 17.5c-.3 4.6-1.9 13.9-3.6 20.8-1.6 6.9-3.5 16.1-4.1 20.5-1.6 10.5-3.1 13.5-7 13.5-2 0-3-.5-3-1.5 0-.8 2.3-7.7 5.1-15.2 6.8-18.6 8.4-24 10.6-36.1 1-5.6 2-10.2 2.2-10.2.2 0 .1 3.7-.2 8.2zm-19.2 20.4c-5.5 15.2-8.7 23.4-10 25.1-1.3 1.7-5.5 1-5.5-1 0-2.1 4.7-11.4 9.4-18.5 2.5-3.8 5.5-9 6.7-11.5 1.3-2.6 2.4-4.5 2.6-4.3.2.1-1.3 4.7-3.2 10.2z"/><path d="M250.2 293.2c-.6.6-1.2 1.9-1.2 2.7 0 1.3.2 1.3 1.6-.1.9-.9 1.5-2.1 1.3-2.7-.3-.9-.8-.8-1.7.1zM152 329c-.9 1.6-.8 2 .5 2 .8 0 1.5-.2 1.5-.4s.3-1.1.6-2c.9-2.3-1.3-2-2.6.4zM372.2 387.2c-3.4 5.5-9.2 18.1-9.2 20 0 2.4 1.7 2.2 6.5-.7 5.1-3.2 7-3.3 5.5-.4-2.2 4.1 2.2 6 8.2 3.5 1.2-.6 1.7-.2 2 1.6.2 1.9 1 2.4 3.9 2.6 3 .2 4.1-.2 5.7-2.3 1.1-1.4 2.2-3 2.4-3.5.2-.4 1.2-1 2.3-1.2 2.1-.3 2.1-.4.9 7.9-.5 2.9-.3 4.3.5 4.3.6 0 1.1-.5 1.1-1 0-.6 1.4-5.1 3.1-10l3.2-9 4.6-.1c3.2-.2 3.7-.3 1.6-.6-5.7-.7-5.7-.9-3-6.2 3-6 3-6.1.7-6.1-1.2 0-2.6 1.9-4.3 5.9-2.2 4.9-3.1 6-5.8 6.6-4.2.9-5.5 3-1.3 2.2 3.2-.6 3.7-.1 2.6 2.6-.5 1.5-3.3 1.4-9.7-.5-3.6-1.1-3.9-1-6.5 1.9-1.7 2-4 3.4-6.4 3.8-4.3.7-4.4.5-2.3-3.4 1.3-2.6 1.3-3-.1-4.2-1.4-1.1-2.3-1-5.7.9-2.2 1.2-4.2 2.1-4.4 1.9-.1-.2 1.7-4.4 4.1-9.4 2.5-5 4.2-9.4 3.9-9.7-1.2-1.2-2.2-.5-4.1 2.6zm21.8 18.2c0 2.1-4.7 7.3-5.6 6.3-1.1-1.1 2.6-7.7 4.3-7.7.7 0 1.3.6 1.3 1.4zM544.9 434.6c-2.2 2.3-2.4 3.4-2.4 11.4 0 7.2.3 9.2 1.9 10.9 2.8 3 5 2.6 8.5-1.6 5.1-6.1 5.6-14.5 1.4-21-2.1-3.1-6.3-3-9.4.3zM472 445c-4.2 4.2-1.3 11 4.6 11 5.6 0 7.4-1.5 7.4-6 0-6.2-.7-7-5.6-7-3.1 0-5 .6-6.4 2zM264.7 445.7c-2.2.6-4.7 5.3-4.7 8.8 0 3.6 2.8 9.2 5.4 11 1.1.8 3.7 1.5 5.8 1.5 6.4 0 9.3-5.3 6.4-11.9-3.5-7.6-7.8-10.8-12.9-9.4zM400.3 459.4c-5.1 5.1-5.4 5.7-4.8 8.8.4 1.8 1.2 3.6 1.8 4 .6.3 1.8 2.1 2.7 4 2.5 5.3 7.2 3.1 13.1-6.1 3.7-5.7 3.8-10.3.4-13.6-3.9-4-7-3.3-13.2 2.9zM58.4 460.4c-4.5 2-5.7 7-3.3 13.3 2.8 7.5 9 9.9 16.4 6.3 9.2-4.4 9.8-12.3 1.5-18.5-3.9-2.8-9.5-3.3-14.6-1.1zM213.4 460c-7.2 2.9-9.7 13.2-4.9 20.2 5 7.4 14.9 7 18.1-.9 2-4.7 1.3-9.2-2.2-14-4.7-6.4-6.4-7.2-11-5.3zM593 464.5c-1.9.7-5 1.4-6.8 1.4-2.1.1-4.2 1-5.7 2.5-2.4 2.4-2.4 2.4-.6 7.2 2 5.8 4.8 7.6 10.6 6.8 6.4-.9 9.2-2.4 10.5-5.5 1.6-3.8.7-10.9-1.6-12.6-2.1-1.5-1.9-1.5-6.4.2zM346.3 464.9c-9.3 1.6-12.1 8.7-5.7 14.7 4.2 4.1 7.7 4.4 12.5 1.1 3-2 3.4-2.8 3.7-7.4.3-4.7 0-5.3-2.7-7.2-1.6-1.2-3.1-2-3.3-2-.1.1-2.2.5-4.5.8zM147.5 476.1c-8.3 2.6-11.9 11.4-8.1 20.2 2.8 6.8 9.4 8.9 16.3 5.4 6.4-3.3 10.5-15.2 7.1-20.6-2.6-4.2-10.1-6.6-15.3-5zM460.9 487.8c-4.7 3.8-6.4 15.2-3.3 21.8 2.3 4.9 6.4 6.8 12.7 6 2.8-.4 5.9-1.2 6.9-1.7 7.4-4 7.8-21.3.6-25.8-1.2-.7-4.9-1.6-8.2-1.8-5.1-.4-6.5-.2-8.7 1.5zM92 494.5c-3.9 4-4.5 5.1-4.5 8.8.1 10.2 2.3 12 16.2 13.2l8.2.7 2-3.3c2.6-4.2 2.7-10.1.2-15.5-2.4-5.2-7.4-8.4-13.3-8.4-3.9 0-4.9.5-8.8 4.5zM267.8 496.6c-5.7 3-7.1 15.4-2.5 22.3 3.3 5 8 7 11.5 5 3-1.7 7.2-9.6 7.9-14.9.5-3.2 0-4.3-3.1-7.8-4.3-4.8-9.9-6.6-13.8-4.6zM395.4 501.4c-1.7.8-4.1 2.7-5.3 4.2-1.9 2.4-2.2 3.8-1.9 8.2.5 6.1 4 10.5 9.4 12.1 3.8 1.1 10.2-.9 12.7-4 4.7-5.8-1.2-18.7-9.8-21.2-1.1-.3-3.4 0-5.1.7zM210.1 510c-4.8 1.1-7.2 4-7.8 9.2-1.2 10.6 8.8 16.8 16.6 10.3 6-5.1 6.4-13.4.9-18-3.1-2.6-4.2-2.8-9.7-1.5zM327.2 512c-6.8 4.2-9.6 13.2-5 16.4 1.3.9 4.3 1.6 7 1.6 5.9 0 9.6-2.9 10.4-8.1.5-3 .1-4.1-2.5-7.1-3.9-4.4-6.1-5.1-9.9-2.8zM441.6 527.4c-2.8 2.7-5.1 12.1-4.1 16.6 2.3 10.7 20.6 6 20.5-5.2-.1-4.8-3.7-10.6-7.6-12.3-4.9-2-6.1-1.9-8.8.9zM591.8 574.7c.6.2 1.8.2 2.5 0 .6-.3.1-.5-1.3-.5-1.4 0-1.9.2-1.2.5zM624.8 590.7c1.2.2 3 .2 4 0 .9-.3-.1-.5-2.3-.4-2.2 0-3 .2-1.7.4zM667.3 606.7c.9.2 2.3.2 3 0 .6-.3-.1-.5-1.8-.5-1.6 0-2.2.2-1.2.5z"/></svg>